<?xml version="1.0" encoding="UTF-8"?>
<svg width="63px" height="42px" viewBox="0 0 63 42" version="1.1" xmlns="http://www.w3.org/2000/svg" xmlns:xlink="http://www.w3.org/1999/xlink">
    <g id="Emplyees-web-layout" stroke="none" stroke-width="1" fill="none" fill-rule="evenodd">
        <g id="Emplyees---list" transform="translate(-257.000000, -30.000000)">
            <g id="Header">
                <g id="Logo" transform="translate(257.000000, 30.000000)">
                    <g id="Employess-logo">
                        <g id="Emplyee-icon-" transform="translate(40.753383, 11.551282)">
                            <ellipse id="Head" fill="#37474F" cx="10.616389" cy="6.27323294" rx="6.21714459" ry="6.27323294"></ellipse>
                            <path d="M10.6225381,13.8011125 C15.6289281,13.8011125 18.4764031,15.266251 19.1649628,18.1965282 L21.4421001,29.6161688 L1.42108547e-14,29.6161688 L2.06781522,18.1175923 C2.76457377,15.2399391 5.61614806,13.8011125 10.6225381,13.8011125 Z" id="Body" fill="#37474F"></path>
                            <path d="M10.1163982,14.0681955 L8.99289496,21.9285497 C8.98340075,21.994974 8.99564126,22.0626876 9.02778959,22.1215842 L9.91418773,23.7454897 C9.9964914,23.8962723 10.1854451,23.9517854 10.3362277,23.8694817 C10.3772286,23.8471016 10.4126623,23.8157743 10.4398984,23.7778252 L11.6297454,22.1199679 C11.6715038,22.0617843 11.6919045,21.9909728 11.6875025,21.9194906 L11.2055371,14.0929401 C11.1954326,13.9288545 11.0593837,13.8009663 10.8949873,13.801018 L10.4242109,13.8011661 C10.2694677,13.8012148 10.1382935,13.9150092 10.1163982,14.0681955 Z" id="Tie" fill="#FAFAFA" transform="translate(10.338928, 18.854291) rotate(-2.000000) translate(-10.338928, -18.854291) "></path>
                        </g>
                        <g id="Emplyee-icon" transform="translate(16.450649, 0.000000)">
                            <ellipse id="Head" fill="#37474F" cx="14.6506169" cy="8.71794872" rx="8.57965954" ry="8.71794872"></ellipse>
                            <path d="M14.6591026,19.1794872 C21.5679208,19.1794872 25.4974362,21.2155989 26.4476487,25.2878222 L29.5900982,41.157764 L1.42108547e-14,41.157764 L2.853585,25.1781246 C3.8151118,21.179033 7.75028432,19.1794872 14.6591026,19.1794872 Z" id="Body" fill="#37474F"></path>
                            <path d="M13.9621785,19.5508214 L12.4089306,30.4756688 C12.3958919,30.5673773 12.4126764,30.6608483 12.4568076,30.7422909 L13.6771494,32.9943888 C13.7908171,33.2041587 14.0530151,33.2820648 14.262785,33.168397 C14.3206332,33.1370509 14.3705572,33.0929053 14.4087478,33.0393285 L16.048301,30.7392352 C16.1057021,30.6587085 16.1337376,30.5609258 16.1277254,30.4622177 L15.4652041,19.5850036 C15.4513132,19.3569452 15.2622414,19.1791393 15.0337603,19.1792678 L14.3896345,19.1796299 C14.1746323,19.1797507 13.9924423,19.3379597 13.9621785,19.5508214 Z" id="Tie" fill="#FAFAFA" transform="translate(14.266577, 26.199963) rotate(-2.000000) translate(-14.266577, -26.199963) "></path>
                        </g>
                        <g id="Emplyee-icon-" transform="translate(0.000000, 8.282051)">
                            <ellipse id="Head" fill="#37474F" cx="11.6780279" cy="6.96513363" rx="6.83885905" ry="6.96513363"></ellipse>
                            <path d="M11.6847919,15.323294 C17.191821,15.323294 20.3240434,16.9500287 21.0814591,20.2034982 L23.5863102,32.882658 L1.42108547e-14,32.882658 L2.27459674,20.1158562 C3.04103114,16.9208147 6.17776286,15.323294 11.6847919,15.323294 Z" id="Body" fill="#37474F"></path>
                            <path d="M11.1296088,15.6204617 L9.89085961,24.3484903 C9.88046722,24.4217134 9.89383823,24.4963391 9.92900731,24.5613987 L10.9005008,26.358574 C10.991266,26.5264813 11.2009615,26.5890174 11.3688689,26.4982523 C11.415385,26.4731072 11.4555109,26.4376237 11.4861578,26.3945332 L12.7918111,24.5587443 C12.8375757,24.494398 12.8599259,24.4163205 12.8551426,24.3375045 L12.3277699,15.6477605 C12.3166948,15.4652712 12.1654071,15.3229785 11.9825821,15.3230962 L11.4715572,15.3234253 C11.2995342,15.3235361 11.1537814,15.4501455 11.1296088,15.6204617 Z" id="Tie" fill="#FAFAFA" transform="translate(11.371604, 20.931496) rotate(-2.000000) translate(-11.371604, -20.931496) "></path>
                        </g>
                    </g>
                </g>
            </g>
        </g>
    </g>
</svg>