<?xml version="1.0" encoding="UTF-8"?>
<svg width="38px" height="25px" viewBox="0 0 38 25" version="1.1" xmlns="http://www.w3.org/2000/svg" xmlns:xlink="http://www.w3.org/1999/xlink">
    <g id="Emplyees-web-layout" stroke="none" stroke-width="1" fill="none" fill-rule="evenodd">
        <g id="Emplyees---list" transform="translate(-659.000000, -966.000000)">
            <g id="Footer" transform="translate(659.000000, 966.000000)">
                <g id="Logo">
                    <g id="Employess-logo">
                        <g id="Emplyee-icon-" transform="translate(24.452031, 6.930770)">
                            <ellipse id="Head" fill="#90A4AE" cx="6.36983367" cy="3.76393991" rx="3.7302869" ry="3.76393991"></ellipse>
                            <path d="M6.37352311,8.28066781 C9.37735726,8.28066781 11.0858423,9.15975098 11.4989782,10.9179173 L12.8652606,17.769702 L1.42108547e-14,17.769702 L1.24068918,10.8705558 C1.65874432,9.14396381 3.36968897,8.28066781 6.37352311,8.28066781 Z" id="Body" fill="#90A4AE"></path>
                            <path d="M6.06983914,8.44091765 L5.39573719,13.1571303 C5.39004066,13.1969849 5.39738497,13.2376131 5.41667397,13.272951 L5.94851288,14.2472944 C5.99789508,14.3377639 6.11126732,14.3710718 6.20173686,14.3216896 C6.2263374,14.3082616 6.24759763,14.2894651 6.26393931,14.2666957 L6.97784751,13.2719813 C7.00290257,13.2370711 7.01514297,13.1945842 7.0125018,13.1516949 L6.72332253,8.45576438 C6.71725981,8.35731304 6.63563049,8.28058008 6.53699267,8.28061112 L6.25452679,8.2807 C6.16168085,8.28072921 6.08297636,8.34900583 6.06983914,8.44091765 Z" id="Tie" fill="#FAFAFA" transform="translate(6.203357, 11.312575) rotate(-2.000000) translate(-6.203357, -11.312575) "></path>
                        </g>
                        <g id="Emplyee-icon" transform="translate(9.870390, 0.000000)">
                            <ellipse id="Head" fill="#90A4AE" cx="8.79037047" cy="5.23076944" rx="5.14779593" ry="5.23076944"></ellipse>
                            <path d="M8.7954619,11.5076928 C12.940753,11.5076928 15.2984623,12.7293598 15.8685899,15.1726939 L17.7540596,24.6946594 L1.42108547e-14,24.6946594 L1.71215107,15.1068754 C2.28906717,12.7074203 4.65017078,11.5076928 8.7954619,11.5076928 Z" id="Body" fill="#90A4AE"></path>
                            <path d="M8.37730745,11.7304933 L7.44535868,18.285402 C7.43753545,18.3404271 7.44760611,18.3965097 7.47408484,18.4453753 L8.20628994,19.7966341 C8.2744906,19.922496 8.43180941,19.9692397 8.55767133,19.901039 C8.59238027,19.8822313 8.62233464,19.855744 8.64524902,19.8235979 L9.62898098,18.4435418 C9.66342161,18.3952258 9.68024293,18.3365562 9.6766356,18.2773314 L9.2791228,11.7510026 C9.2707883,11.6141676 9.15734519,11.5074841 9.02025656,11.5075611 L8.63378107,11.5077784 C8.50477971,11.5078509 8.39546571,11.6027763 8.37730745,11.7304933 Z" id="Tie" fill="#FAFAFA" transform="translate(8.559946, 15.719978) rotate(-2.000000) translate(-8.559946, -15.719978) "></path>
                        </g>
                        <g id="Emplyee-icon-" transform="translate(0.000000, 4.969231)">
                            <ellipse id="Head" fill="#90A4AE" cx="7.00681704" cy="4.17908035" rx="4.10331559" ry="4.17908035"></ellipse>
                            <path d="M7.01087543,9.19397676 C10.315093,9.19397676 12.1944265,10.1700176 12.648876,12.1220994 L14.1517867,19.7295956 L1.42108547e-14,19.7295956 L1.3647581,12.0695142 C1.82461876,10.1524892 3.70665787,9.19397676 7.01087543,9.19397676 Z" id="Body" fill="#90A4AE"></path>
                            <path d="M6.67776557,9.37227737 L5.934516,14.6090948 C5.92828057,14.6530286 5.93630317,14.697804 5.95740462,14.7368398 L6.54030076,15.815145 C6.59475986,15.9158894 6.72057718,15.9534111 6.8213216,15.898952 C6.84923126,15.883865 6.87330682,15.8625748 6.89169495,15.8367206 L7.67508699,14.7352472 C7.7025457,14.6966394 7.71595584,14.6497929 7.71308588,14.6025033 L7.39666226,9.38865665 C7.3900172,9.27916312 7.29924452,9.19378745 7.18954955,9.19385809 L6.88293457,9.19405555 C6.7797208,9.19412201 6.69226912,9.27008766 6.67776557,9.37227737 Z" id="Tie" fill="#FAFAFA" transform="translate(6.822963, 12.558898) rotate(-2.000000) translate(-6.822963, -12.558898) "></path>
                        </g>
                    </g>
                </g>
            </g>
        </g>
    </g>
</svg>