<?xml version="1.0" encoding="UTF-8"?>
<svg width="91px" height="126px" viewBox="0 0 91 126" version="1.1" xmlns="http://www.w3.org/2000/svg" xmlns:xlink="http://www.w3.org/1999/xlink">
    <g id="Emplyees-web-layout" stroke="none" stroke-width="1" fill="none" fill-rule="evenodd">
        <g id="Emplyees---view" transform="translate(-674.000000, -326.000000)">
            <g id="Employee-details" transform="translate(439.000000, 179.000000)">
                <g id="Ick" transform="translate(0.000000, 87.000000)">
                    <g id="Emplyee-icon" transform="translate(235.000000, 60.000000)">
                        <ellipse id="Head" fill="#90A4AE" cx="44.8300309" cy="26.6822067" rx="26.2532564" ry="26.6822067"></ellipse>
                        <path d="M44.8559966,58.7008547 C65.9965765,58.7008547 78.0206638,64.9325905 80.9282585,77.396062 L90.5439701,125.967702 L1.42108547e-14,125.967702 L8.73180323,77.0603208 C11.674019,64.8206767 23.7154168,58.7008547 44.8559966,58.7008547 Z" id="Body" fill="#90A4AE"></path>
                        <path d="M42.7229169,59.8416257 L37.9706352,93.2725356 C37.9305942,93.5542121 37.9821356,93.8413003 38.1176574,94.0914578 L41.8470033,100.975394 C42.1961296,101.61984 43.0015791,101.859244 43.6460253,101.510118 C43.8238209,101.413798 43.9772548,101.278122 44.0946106,101.113451 L49.1056994,94.0820181 C49.2819789,93.8346673 49.3680757,93.5343325 49.3496158,93.2311558 L47.3229753,59.9466254 C47.2803162,59.2460145 46.6994766,58.6997775 45.9975683,58.7001775 L44.0360559,58.7012952 C43.3755613,58.7016716 42.8158733,59.1877049 42.7229169,59.8416257 Z" id="Tie" fill="#FAFAFA" transform="translate(43.654748, 80.185390) rotate(-2.000000) translate(-43.654748, -80.185390) "></path>
                    </g>
                </g>
            </g>
        </g>
    </g>
</svg>