<?xml version="1.0" encoding="UTF-8"?>
<svg width="24px" height="24px" viewBox="0 0 24 24" version="1.1" xmlns="http://www.w3.org/2000/svg" xmlns:xlink="http://www.w3.org/1999/xlink">
    <g id="Emplyees-web-layout" stroke="none" stroke-width="1" fill="none" fill-rule="evenodd">
        <g id="Emplyees---view" transform="translate(-708.000000, -576.000000)" fill="#8BC34A">
            <g id="Employee-details" transform="translate(439.000000, 179.000000)">
                <g id="Ick" transform="translate(0.000000, 87.000000)">
                    <g id="Save-icon" transform="translate(269.000000, 310.000000)">
                        <path d="M23.6875844,6.62473031 C23.4793073,6.12494606 23.2290297,5.72910773 22.9373267,5.43740711 L18.5623577,1.06247303 C18.2708465,0.770964185 17.8748132,0.52088028 17.3748332,0.312413099 C16.8750449,0.1041377 16.416682,0 16.0001279,0 L1.49994007,0 C1.08338594,0 0.729161506,0.145754423 0.437458547,0.437455051 C0.145755588,0.728963897 0,1.0831855 0,1.49992808 L0,22.5000719 C0,22.9168145 0.145755588,23.2710361 0.437458547,23.5625449 C0.729161506,23.8540538 1.08338594,24 1.49994007,24 L22.5002517,24 C22.9169976,24 23.2712221,23.8540538 23.5627332,23.5625449 C23.8542444,23.2710361 24,22.9168145 24,22.5000719 L24,8 C24,7.58325742 23.8958615,7.12489812 23.6875844,6.62473031 L23.6875844,6.62473031 Z M10.0001758,2.49988014 C10.0001758,2.36448195 10.049656,2.24749485 10.1486164,2.14834348 C10.2475767,2.04957568 10.3647566,2.00009589 10.5001558,2.00009589 L13.5004195,2.00009589 C13.6354352,2.00009589 13.7526151,2.0493839 13.8515754,2.14834348 C13.9507276,2.24749485 14.0002078,2.36448195 14.0002078,2.49988014 L14.0002078,7.49983219 C14.0002078,7.63542216 13.9505358,7.75260105 13.8515754,7.85156063 C13.7526151,7.95032843 13.6354352,7.99980822 13.5004195,7.99980822 L10.5001558,7.99980822 C10.3647566,7.99980822 10.2475767,7.95052021 10.1486164,7.85156063 C10.049656,7.75240926 10.0001758,7.63542216 10.0001758,7.49983219 L10.0001758,2.49988014 L10.0001758,2.49988014 Z M18.0002397,22.0000959 L5.99995205,22.0000959 L5.99995205,16 L18.0002397,16 L18.0002397,22.0000959 L18.0002397,22.0000959 Z M22.0006553,22.0000959 L20.0001598,22.0000959 L19.999968,22.0000959 L19.999968,15.4998322 C19.999968,15.0830896 19.8542124,14.7290598 19.5625095,14.4373592 C19.2709983,14.1456585 18.9167739,13.9999041 18.5002198,13.9999041 L5.49997203,13.9999041 C5.08322612,13.9999041 4.72900169,14.1456585 4.43729873,14.4373592 C4.14578755,14.728868 3.99984018,15.0830896 3.99984018,15.4998322 L3.99984018,22.0000959 L1.99992009,22.0000959 L1.99992009,1.99990411 L3.99984018,1.99990411 L3.99984018,8.49997603 C3.99984018,8.91671861 4.14559577,9.27074843 4.43729873,9.56244906 C4.72900169,9.8539579 5.08322612,9.99990411 5.49997203,9.99990411 L14.5001878,9.99990411 C14.9167419,9.99990411 15.2713499,9.8539579 15.5626693,9.56244906 C15.8539887,9.27094021 16.0001279,8.91671861 16.0001279,8.49997603 L16.0001279,1.99990411 C16.1562398,1.99990411 16.3593387,2.05187707 16.6094246,2.15601477 C16.8597023,2.26015247 17.0367186,2.36429017 17.1408571,2.46842787 L21.5317442,6.85927986 C21.6360745,6.96341756 21.740213,7.1433092 21.8443516,7.39837944 C21.9486819,7.65364146 22.0006553,7.85424558 22.0006553,8 L22.0006553,22.0000959 L22.0006553,22.0000959 Z" id="Floppy"></path>
                    </g>
                </g>
            </g>
        </g>
    </g>
</svg>