<?xml version="1.0" encoding="UTF-8"?>
<svg width="273px" height="187px" viewBox="0 0 273 187" version="1.1" xmlns="http://www.w3.org/2000/svg" xmlns:xlink="http://www.w3.org/1999/xlink">
    <g id="Emplyees-web-layout" stroke="none" stroke-width="1" fill="none" fill-rule="evenodd">
        <g id="Emplyees---invalid-url" transform="translate(-584.000000, -353.000000)">
            <g id="No-Employee" transform="translate(481.000000, 342.000000)">
                <g id="Emplyee-icon-" transform="translate(113.000000, 11.000000)">
                    <g id="User-icon" transform="translate(63.000000, 0.000000)">
                        <ellipse id="Head" fill="#EF9A9A" cx="63.2559847" cy="37.5695087" rx="37.0438199" ry="37.5695087"></ellipse>
                        <path d="M63.2926228,82.6529191 C93.1223635,82.6529191 110.088568,91.4274277 114.191237,108.976445 L127.75918,177.367064 L9.9475983e-14,177.367064 L12.3207324,108.503709 C16.472252,91.2698491 33.4628822,82.6529191 63.2926228,82.6529191 Z" id="Body" fill="#EF9A9A"></path>
                        <path d="M60.2811577,84.2566302 L53.5788222,131.33011 C53.5223227,131.726931 53.5950837,132.131398 53.7863362,132.48365 L59.0547822,142.187149 C59.5465787,143.092947 60.6795529,143.428562 61.5853509,142.936765 C61.8341993,142.801655 62.0490399,142.611689 62.2136017,142.381255 L69.2906056,132.471414 C69.5392747,132.123206 69.6607366,131.700123 69.6346456,131.273035 L66.7714201,84.4045195 C66.7112445,83.4194962 65.8945889,82.6515889 64.9077294,82.6520774 L62.1278403,82.6534533 C61.199125,82.653913 60.4120682,83.3371876 60.2811577,84.2566302 Z" id="Tie" fill="#FAFAFA" transform="translate(61.599153, 112.907673) rotate(-2.000000) translate(-61.599153, -112.907673) "></path>
                    </g>
                    <g id="X" transform="translate(0.000000, 18.000000)" stroke="#EF5350" stroke-linejoin="round" stroke-opacity="0.0598776224" stroke-width="20">
                        <path d="M126.5,79.3824958 L0.307785888,0.306949807 L126.5,79.3824958 L252.692214,0.306949807 L126.5,79.3824958 Z M126.5,79.3824958 L0.307785888,158.458042 L126.5,79.3824958 L252.692214,158.458042 L126.5,79.3824958 Z" id="X-"></path>
                    </g>
                </g>
            </g>
        </g>
    </g>
</svg>