<?xml version="1.0" encoding="UTF-8"?>
<svg width="20px" height="20px" viewBox="0 0 20 20" version="1.1" xmlns="http://www.w3.org/2000/svg" xmlns:xlink="http://www.w3.org/1999/xlink">
    <g id="Emplyees-web-layout" stroke="none" stroke-width="1" fill="none" fill-rule="evenodd">
        <g id="Emplyees---view" transform="translate(-710.000000, -577.000000)" fill="#2196F3">
            <g id="Employee-details" transform="translate(439.000000, 179.000000)">
                <g id="Ick" transform="translate(0.000000, 87.000000)">
                    <g id="Edit-icon" transform="translate(271.000000, 311.000000)">
                        <path d="M2.84217094e-14,14.5082757 L10.9834485,3.52482723 L16.4751728,9.01655149 L5.49172426,20 L2.84217094e-14,20 L2.84217094e-14,14.5082757 Z M4.79207343,18.3101764 L5.99337292,17.1087148 L2.89112312,14.006465 L1.68982363,15.2077645 L1.68982363,16.6205148 L3.37948523,16.6205148 L3.37948523,18.3103384 L4.79207343,18.3101764 Z M11.4060259,5.76912171 C11.317881,5.76912171 11.2430225,5.79990764 11.1814507,5.86147951 L4.02631387,13.0164543 C3.96474201,13.0781882 3.93395607,13.1528846 3.93395607,13.2410295 C3.93395607,13.4343328 4.03085074,13.5313895 4.22431603,13.5313895 C4.31229898,13.5313895 4.38715741,13.5006036 4.44872927,13.4391937 L11.6038661,6.28405694 C11.6656,6.22232304 11.6962239,6.14762665 11.6962239,6.05948166 C11.6962239,5.86601638 11.5994912,5.76912171 11.4060259,5.76912171 Z M19.5113138,3.59061191 C19.8371586,3.93395607 19.999838,4.33449726 20,4.79207343 C20,5.25856132 19.8373207,5.65456563 19.5116379,5.98024839 L17.3201656,8.17155866 L11.8284413,2.6798344 L14.0197516,0.501648668 C14.3365226,0.167378254 14.7323649,-8.25672845e-15 15.2077645,-8.25672845e-15 C15.6742524,-8.25672845e-15 16.0747936,0.167378254 16.409064,0.501648668 L19.5113138,3.59061191 Z" id="Pancil"></path>
                    </g>
                </g>
            </g>
        </g>
    </g>
</svg>