<?xml version="1.0" encoding="UTF-8"?>
<svg width="17px" height="19px" viewBox="0 0 17 19" version="1.1" xmlns="http://www.w3.org/2000/svg" xmlns:xlink="http://www.w3.org/1999/xlink">
    <g id="Emplyees-web-layout" stroke="none" stroke-width="1" fill="none" fill-rule="evenodd">
        <g id="Emplyees---list" transform="translate(-363.000000, -492.000000)" fill="#EF5350">
            <g id="Delete-icon" transform="translate(363.000000, 492.000000)">
                <path d="M16.8912251,3.27783061 C16.9635441,3.35207486 17,3.44696782 17,3.56235766 L17,4.35414452 C17,4.46953437 16.9635441,4.56442733 16.8912251,4.63851975 C16.8189061,4.712764 16.7262845,4.74981021 16.6136566,4.74981021 L15.4544781,4.74981021 L15.4544781,16.4767582 C15.4544781,17.1610503 15.2655299,17.7527269 14.887189,18.251788 C14.5088481,18.7505454 14.0541869,19 13.522761,19 L3.47723905,19 C2.94596126,19 2.49115191,18.758896 2.11281099,18.2762324 C1.73447007,17.7940243 1.54537371,17.2105465 1.54537371,16.5259507 L1.54537371,4.74981021 L0.386343428,4.74981021 C0.273715501,4.74981021 0.181093851,4.712764 0.108626672,4.63851975 C0.0361594923,4.56442733 0,4.46953437 0,4.35414452 L0,3.56235766 C0,3.44696782 0.0363076869,3.35207486 0.108626672,3.27783061 C0.181093851,3.20373818 0.273567307,3.16654014 0.386343428,3.16654014 L4.1171435,3.16654014 L4.96229754,1.10091017 C5.08307617,0.795734412 5.30032952,0.535955442 5.61435396,0.321573265 C5.92823021,0.107191088 6.24625591,7.10542736e-15 6.56813467,7.10542736e-15 L10.4317171,7.10542736e-15 C10.7537441,7.10542736e-15 11.0717698,0.107191088 11.3857942,0.321573265 C11.6996705,0.535955442 11.9169238,0.795734412 12.0375543,1.10091017 L12.8827083,3.16654014 L16.6136566,3.16654014 C16.7262845,3.16654014 16.8189061,3.20373818 16.8912251,3.27783061 Z M6.38704081,1.71915679 L5.79544781,3.16638831 L11.2045522,3.16638831 L10.624963,1.71915679 C10.568649,1.64506437 10.5001831,1.59966757 10.4197134,1.58311824 L6.59229039,1.58311824 C6.5118207,1.59951575 6.44335478,1.64491254 6.38704081,1.71915679 Z M13.9091044,16.4766064 L13.9091044,4.74981021 L3.09089562,4.74981021 L3.09089562,16.4766064 C3.09089562,16.6578899 3.1190526,16.8250533 3.17536656,16.9774894 C3.23168053,17.1300773 3.29006922,17.2413677 3.35053263,17.3115126 C3.41099604,17.3816575 3.45308332,17.4165781 3.47723905,17.4165781 L13.522761,17.4165781 C13.5470649,17.4165781 13.5891522,17.3816575 13.6494674,17.3115126 C13.7097826,17.2413677 13.7681713,17.1300773 13.8246334,16.9774894 C13.8810956,16.8250533 13.9091044,16.6580417 13.9091044,16.4766064 Z M5.02276095,15.041673 C4.90998483,15.041673 4.81751138,15.0046268 4.7450442,14.9305344 C4.67257702,14.8561383 4.63641753,14.761549 4.63641753,14.6458555 L4.63641753,7.52068467 C4.63641753,7.40529483 4.67272521,7.31040187 4.7450442,7.23615761 C4.81751138,7.16206519 4.90998483,7.12501898 5.02276095,7.12501898 L5.79544781,7.12501898 C5.90822393,7.12501898 6.00069739,7.16206519 6.07316457,7.23615761 C6.14548355,7.31040187 6.18179124,7.40529483 6.18179124,7.52068467 L6.18179124,14.6458555 C6.18179124,14.761549 6.14548355,14.8561383 6.07316457,14.9305344 C6.00084558,15.0046268 5.90822393,15.041673 5.79544781,15.041673 L5.02276095,15.041673 Z M8.11365657,15.041673 C8.00102865,15.041673 7.90840699,15.0046268 7.83593982,14.9305344 C7.76347264,14.8561383 7.72731314,14.761549 7.72731314,14.6458555 L7.72731314,7.52068467 C7.72731314,7.40529483 7.76347264,7.31040187 7.83593982,7.23615761 C7.90840699,7.16206519 8.00102865,7.12501898 8.11365657,7.12501898 L8.88634343,7.12501898 C8.99911955,7.12501898 9.0917412,7.16206519 9.16391199,7.23615761 C9.23652736,7.31040187 9.27253866,7.40529483 9.27253866,7.52068467 L9.27253866,14.6458555 C9.27253866,14.761549 9.23652736,14.8561383 9.16391199,14.9305344 C9.0917412,15.0046268 8.99911955,15.041673 8.88634343,15.041673 L8.11365657,15.041673 Z M11.2045522,15.041673 C11.0917761,15.041673 10.9993026,15.0046268 10.9268354,14.9305344 C10.8543683,14.8561383 10.8182088,14.761549 10.8182088,14.6458555 L10.8182088,7.52068467 C10.8182088,7.40529483 10.8543683,7.31040187 10.9268354,7.23615761 C10.9993026,7.16206519 11.0917761,7.12501898 11.2045522,7.12501898 L11.977239,7.12501898 C12.0900152,7.12501898 12.1826368,7.16206519 12.2549558,7.23615761 C12.3272748,7.31040187 12.3634343,7.40529483 12.3634343,7.52068467 L12.3634343,14.6458555 C12.3634343,14.761549 12.3272748,14.8561383 12.2549558,14.9305344 C12.1826368,15.0046268 12.0900152,15.041673 11.977239,15.041673 L11.2045522,15.041673 Z" id="Trash"></path>
            </g>
        </g>
    </g>
</svg>